<?xml version="1.0" encoding="utf-8"?>
<!-- Generator: Adobe Illustrator 25.3.1, SVG Export Plug-In . SVG Version: 6.00 Build 0)  -->
<svg version="1.1" id="Слой_1" xmlns="http://www.w3.org/2000/svg" xmlns:xlink="http://www.w3.org/1999/xlink" x="0px" y="0px"
	 viewBox="0 0 51.7466507 65.5614319" style="enable-background:new 0 0 51.7466507 65.5614319;" xml:space="preserve">
<style type="text/css">
	.st0{fill:url(#SVGID_1_);}
	.st1{fill:url(#SVGID_2_);}
	.st2{fill:url(#SVGID_3_);}
	.st3{fill:url(#SVGID_4_);}
	.st4{fill:#F27A83;}
	.st5{opacity:0.3;enable-background:new    ;}
	.st6{fill:url(#SVGID_5_);}
	.st7{fill:#1EA6C7;}
	.st8{fill:#15D1FA;}
	.st9{fill:#13C6ED;}
	.st10{fill:#0E92AF;}
	.st11{fill:url(#SVGID_6_);}
	.st12{fill:url(#SVGID_7_);}
	.st13{opacity:0.7;fill:#FFFFFF;enable-background:new    ;}
</style>
<linearGradient id="SVGID_1_" gradientUnits="userSpaceOnUse" x1="23.4436207" y1="14.8763132" x2="25.6901207" y2="14.6288118" gradientTransform="matrix(1 0 0 -1 0 49.1228638)">
	<stop  offset="0" style="stop-color:#FDFDFD"/>
	<stop  offset="1" style="stop-color:#F2F2F2"/>
</linearGradient>
<path class="st0" d="M28.3918991,35.8547325c0.010601,0.5225983,0.0217018,1.0429001,0.0332012,1.5611L23.8785,33.1993332
	l0.0021-1.5251007L28.3918991,35.8547325z"/>
<linearGradient id="SVGID_2_" gradientUnits="userSpaceOnUse" x1="23.7502193" y1="17.6561527" x2="25.9966183" y2="17.4086514" gradientTransform="matrix(1 0 0 -1 0 49.1228638)">
	<stop  offset="0" style="stop-color:#FDFDFD"/>
	<stop  offset="1" style="stop-color:#F2F2F2"/>
</linearGradient>
<path class="st1" d="M28.3183002,32.2596321c0.0202999,1.0255013,0.0408001,2.0390015,0.0616989,3.0405006l-4.4934998-4.1674004
	l0.0112-2.9730988L28.3183002,32.2596321z"/>
<linearGradient id="SVGID_3_" gradientUnits="userSpaceOnUse" x1="23.9070377" y1="-9.9760256" x2="26.9415379" y2="-10.0471315" gradientTransform="matrix(1 0 0 -1 0 49.1228638)">
	<stop  offset="0" style="stop-color:#FDFDFD"/>
	<stop  offset="1" style="stop-color:#F2F2F2"/>
</linearGradient>
<path class="st2" d="M28.9708004,60.3659286c-0.0395012,0.8262024-0.1093998,1.6171036-0.2033005,2.3720016l-4.9766006-4.6148987
	l0.009201-2.551796L28.9708004,60.3659286z"/>
<linearGradient id="SVGID_4_" gradientUnits="userSpaceOnUse" x1="24.0343475" y1="-4.5310087" x2="27.0688457" y2="-4.602107" gradientTransform="matrix(1 0 0 -1 0 49.1228638)">
	<stop  offset="0" style="stop-color:#FDFDFD"/>
	<stop  offset="1" style="stop-color:#F2F2F2"/>
</linearGradient>
<path class="st3" d="M28.8132992,52.9129333c0.0544014,1.7172012,0.1070004,3.1534958,0.1572018,4.2378006
	c0.0316982,0.6797943,0.0437984,1.3400955,0.0362988,1.9810944l-5.2031994-4.824295l0.0219002-6.0200043L28.8132992,52.9129333z"/>
<path class="st4" d="M24.8733006-16.5088787l0.0123997,0.0000153v0.0131397
	C24.8822994-16.5022964,24.8773994-16.5052242,24.8733006-16.5088787z"/>
<path class="st5" d="M26.7021008-1.5713676c0,0.0042,0.0077,0.007,0.0112,0.0113001l-0.0112,0.0042V-1.5713676z"/>
<path class="st4" d="M75.0044022,62.5995331c-0.0001984,0.0044022-0.0001984,0.0087967,0,0.0130997h-0.0125046
	C74.9946976,62.6090317,74.9974976,62.6039352,75.0044022,62.5995331z"/>
<path class="st5" d="M58.782299,64.2802353l-0.0117989,0.0124969c-0.0010986-0.004303-0.0026016-0.0084991-0.0043983-0.0124969
	H58.782299z"/>
<path class="st5" d="M36.4431,61.0698318c-0.1710014,0.2259979-0.354599,0.4437027-0.5499001,0.652298
	c-0.9127007,0.9746017-2.1138992,1.8076019-3.5211983,2.4404984c-1.8757019,0.8465042-4.1155014,1.3332062-6.5226021,1.3299026
	c-2.1816998-0.0029984-4.2258987-0.4100952-5.984499-1.1185989c-1.655201-0.6684036-3.0575008-1.6029968-4.080801-2.714798
	c-0.1931-0.2092056-0.3743992-0.4275055-0.5430994-0.6539001L36.4431,61.0698318z"/>
<linearGradient id="SVGID_5_" gradientUnits="userSpaceOnUse" x1="25.6809387" y1="3.3839161" x2="25.4274387" y2="-19.1273823" gradientTransform="matrix(1 0 0 -1 0 49.1228638)">
	<stop  offset="0" style="stop-color:#000000"/>
	<stop  offset="1" style="stop-color:#15D1FA"/>
</linearGradient>
<path class="st6" d="M42.5912018,0.9696317C42.421299,0.7179323,42.2582016,0.6902319,42.132,0.6959329
	c-1.2383995,0.0453987-3.9425011,3.4647999-6.8917007,8.7108002c-0.0050011,0.0084-0.0113983,0.0207996-0.0184975,0.0325985
	c-0.0255013,0.0444012-0.0619011,0.0827007-0.106102,0.1120014c-0.0443001,0.0293999-0.0952988,0.0488987-0.1492004,0.0571003
	c-0.0537987,0.0081997-0.1088982,0.0047989-0.1610985-0.0098c-0.0522003-0.0146008-0.1000023-0.0401001-0.1397018-0.074501
	c-0.1885986-0.0524998-0.3736992-0.101799-0.5508995-0.1476994c-0.7196007-0.1865005-1.460598-0.3528004-2.2021999-0.4948997
	c-0.8827991-0.1691017-1.7777004-0.3049011-2.6605988-0.4034004c-2.2067013-0.2572994-4.4395008-0.2604008-6.6469002-0.009201
	c-0.8831997,0.0960999-1.7784004,0.2294998-2.6610012,0.396101c-0.7426987,0.1399994-1.4841003,0.3043003-2.2041988,0.4888
	c-0.1774006,0.0453987-0.3619003,0.0942001-0.5513,0.1462002c-0.0230007,0.0198002-0.0488014,0.0366993-0.0767002,0.0501995
	c-0.0412006,0.0200005-0.0862999,0.032299-0.1326008,0.0363007c-0.0464001,0.0039997-0.0931988-0.0005016-0.1376991-0.0132008
	c-0.0445004-0.0125999-0.0859013-0.0333004-0.1217003-0.0606995C16.684,9.4852324,16.6543999,9.4516325,16.6327,9.4136324
	c-0.0063992-0.0103989-0.0121002-0.0208988-0.0177002-0.0319996l-0.0042992-0.0077991
	c-2.9311008-5.2502007-5.6258001-8.6764011-6.8640404-8.7252007C9.62255,0.6426321,9.4572601,0.6698328,9.2859898,0.9210325
	C3.18905,9.881032,0.266045,19.296833,0.832569,28.1543312c0.000359,0.0060997,0.00035,0.0121994-0.000025,0.0182991
	c-0.000187,0.1358032,0.006707,0.2789001,0.012182,0.4232025c0.081892,2.0895004,0.305714,4.1721992,0.670144,6.2359009
	C1.51447,34.8341331,1.51446,34.8365326,1.51486,34.838932c0.32593,1.8409996,0.7664798,3.6632004,1.31946,5.4575996
	c0.1012099,0.3258018,0.20573,0.6506004,0.31356,0.9743004c0.45276,1.354599,0.9700799,2.6884003,1.54421,3.9771996
	c0.35776,0.8064995,0.7481399,1.6168976,1.1619601,2.4111023c0.4569497,0.8783951,0.9479699,1.7472,1.4596,2.5825958
	c0.3410797,0.5576019,0.6991997,1.1113052,1.0658398,1.6500015c2.5205097,3.7075043,5.5326099,6.819397,8.7112103,8.998703
	c3.0674,2.1028976,6.0951004,3.2166977,8.7597008,3.2203979s5.6952991-1.1025009,8.7684994-3.1961975
	c3.1838989-2.1706009,6.2038994-5.2741013,8.7360001-8.9746017c0.3675003-0.5358047,0.7271004-1.089798,1.0704002-1.6471024
	c0.5139999-0.8339996,1.0080986-1.7019958,1.4668007-2.578598c0.4151993-0.7917023,0.8085976-1.6016998,1.1685982-2.4071999
	c0.5648003-1.2591019,1.075901-2.5615005,1.5245018-3.8848c0.1205978-0.3525009,0.2361984-0.7066002,0.3468971-1.0622025
	c0.5582008-1.7929001,1.0041008-3.6138992,1.3352013-5.4538994c0.3703995-2.0643005,0.6002007-4.1478996,0.6880989-6.2385979
	c0.0058022-0.1427994,0.0105019-0.2849998,0.0139999-0.4265022v-0.0156975
	C51.3821983,22.0517311,50.2636986,12.3117323,42.5912018,0.9696317z M36.9262009,10.388133
	c0.0886002-0.9274006,0.6602974-2.0016994,1.8523979-3.4834008c0.2131996-0.2674999,0.4220009-0.5342999,0.6224022-0.7919998
	c1.1303978-1.4563007,2.0234985-2.6098003,3.1096992-2.3262005c0.3544998,0.0925999,1.3650017,0.7047005,3.0437012,4.380301
	c1.0004997,2.1861992,1.5643997,5.2476997,1.6317978,8.8525c0.0237999,1.2775993-0.0163994,2.6177979-0.1175995,3.9841003
	c-0.0024986,0.0345001-0.0169983,0.0674973-0.0412979,0.093998c-0.0242004,0.0265007-0.057003,0.0452003-0.0936012,0.0534019
	c-0.0139008,0.0030975-0.0282021,0.0046005-0.0425987,0.0044975c-0.0303001-0.0000992-0.0600014-0.0072975-0.0864029-0.0208969
	c-0.0263977-0.0137024-0.0485992-0.0333023-0.0644989-0.057003c-2.3186989-3.4982986-4.8146019-6.0156965-7.4275017-7.4855986
	l-0.0942993-0.0529995c-0.6753998-0.3764992-1.9311981-1.0783997-2.2429008-2.3544998
	C36.9143982,10.9228334,36.8978004,10.654233,36.9262009,10.388133z M21.5174007,49.8642349
	c0.0140991-0.3337021,0.0811996-0.6637039,0.1992989-0.9794998l0.0918007-0.229805
	c0.0333996-0.0744019,0.0711002-0.1467972,0.109499-0.2205963l0.0562-0.1090012
	c0.0178013-0.036499,0.0426006-0.0698013,0.0632-0.1050034l0.1301003-0.2075958
	c0.021101-0.0350037,0.0449009-0.0685043,0.0711002-0.100502l0.0710011-0.0985031l0.1463985-0.195694l0.3225002-0.3660049
	l-0.2474003,0.4092026l-0.1051998,0.2120972l-0.052599,0.1051025c-0.0186005,0.0346985-0.0348015,0.0705032-0.0484009,0.1071014
	L22.2395,48.3022308c-0.0135994,0.0359039-0.0298996,0.0710983-0.0405998,0.1082993l-0.0328007,0.110405
	c-0.0207005,0.0737991-0.044899,0.1461945-0.0627003,0.2199936l-0.0436001,0.2220001
	c-0.0499001,0.2901001-0.0538998,0.5854034-0.0117989,0.876503c0.0100002,0.0706024,0.0240993,0.1406021,0.0422001,0.2098007
	l0.0261993,0.0979996c0.2178993-0.1244965,0.5314007-0.1651993,0.9355011-0.0112
	c0.6194992,0.2360001,1.3540993,0.3598022,1.8603992,0.4218979c0.5063,0.0621033,0.8906994,0.0777054,0.9573994,0.0797043
	c0.1417999-0.004303,1.6823997-0.0630035,2.8192005-0.4938049c0.405201-0.1529007,0.7178993-0.1112976,0.9361992,0.0137024
	l0.0256004-0.0979004c0.0184002-0.0690994,0.0326996-0.1390991,0.0429001-0.2096024
	c0.0429001-0.2910995,0.0396996-0.5862961-0.0093994-0.8765945l-0.0430012-0.2220993
	c-0.0175991-0.0738068-0.0415993-0.1464005-0.0620995-0.2201996l-0.0324993-0.110405
	c-0.010601-0.0373001-0.0268002-0.0726013-0.0403004-0.1084976l-0.0848007-0.2170029
	c-0.0134983-0.0365982-0.0294991-0.0723953-0.0480995-0.1071014l-0.0522995-0.1052933l-0.1047001-0.2124023l-0.2462006-0.4099045
	l0.3215008,0.3669052L29.4375,47.8236313l0.0708008,0.0987015c0.0261002,0.0319977,0.049799,0.0655975,0.0707989,0.1007004
	l0.1294994,0.2078018c0.0205002,0.0352936,0.0453014,0.0653992,0.0630016,0.1052933l0.0557995,0.1091003
	c0.0361004,0.0739059,0.0756989,0.1464005,0.1089993,0.2210007l0.0911007,0.2300034
	c0.1170998,0.3161011,0.1835995,0.6462021,0.1973,0.9799957c-0.0000992,0.0848999,0.0046997,0.1705017-0.0039005,0.2560043
	l-0.0093994,0.1306l-0.0193996,0.1306c-0.0058002,0.0438995-0.014101,0.0875015-0.0249996,0.1306
	c-0.009201,0.0438004-0.0185013,0.0875015-0.0321007,0.1306c-0.0135002,0.0430984-0.0249004,0.0868988-0.0426998,0.1306
	c-0.009201,0.0227966-0.0149002,0.0437012-0.0263004,0.0653c-0.0114002,0.0214996-0.0177994,0.0429993-0.0377007,0.0788956
	c-0.0042992,0.0066071-0.0100002,0.0124054-0.0149002,0.0190048c-0.0188999,0.3218994-0.1711998,0.6972961-0.4681988,1.0926971
	c-0.4342003,0.5800018-1.1755009,1.2033997-2.2557011,1.7649994c-0.4242992,0.2108002-0.8218994,0.4644012-1.1854992,0.7560043
	c-0.0655994,0.0554962-0.1515007,0.0862961-0.2406006,0.0861969s-0.174799-0.0311966-0.2402992-0.0868988
	c-0.3626995-0.2926025-0.7595997-0.5473022-1.1833-0.7593002c-0.9078999-0.4754028-1.5753002-0.9935989-2.0221996-1.4918976
	c-0.1130009-0.1244049-0.2171001-0.2555008-0.3115005-0.3924026c-0.2413998-0.3536987-0.3663998-0.6882019-0.3822994-0.9802017
	c-0.0050011-0.0065994-0.0107002-0.0123978-0.0149002-0.0189972c-0.0198002-0.0359039-0.0262012-0.0541992-0.0375004-0.0791016
	c-0.0112991-0.0247955-0.016901-0.0450974-0.0261002-0.0653c-0.0177002-0.0450974-0.0289993-0.0888977-0.0424004-0.1306992
	c-0.0133991-0.0418015-0.0226002-0.0876007-0.0317993-0.1306992c-0.0107002-0.0430984-0.0188999-0.0867004-0.024601-0.1306
	l-0.0189991-0.1306992l-0.0090008-0.1306C21.5132008,50.0354309,21.5128002,49.9497299,21.5174007,49.8642349z
	 M4.6438699,16.9612312c0.0758901-3.604598,0.6475-6.6611986,1.65622-8.8478975
	c1.6923504-3.6716008,2.7010202-4.2809014,3.0557699-4.371901c1.0869398-0.2779999,1.97754,0.8747005,3.10394,2.3347988
	c0.1997004,0.2582016,0.4057007,0.5230007,0.6202002,0.7937012c1.1880999,1.4850011,1.7567997,2.5609002,1.8392,3.4884
	c0.0263996,0.2660007,0.0079002,0.5340996-0.0550003,0.7949009c-0.3151999,1.2757988-1.5728998,1.9735985-2.2486992,2.3481998
	L12.5204,13.5542326c-2.6077299,1.4606991-5.11553,3.9731989-7.44169,7.4630976
	C5.0627599,21.0410309,5.0405002,21.0605316,5.01404,21.074131c-0.0264502,0.0135002-0.0562201,0.0207024-0.0865002,0.0207024
	c-0.0143399,0.0000992-0.0286298-0.001503-0.0425496-0.0046997c-0.0365601-0.0082016-0.0693102-0.0270004-0.0935001-0.0536003
	s-0.0385699-0.0596008-0.04105-0.0942001C4.6530199,19.579731,4.61657,18.2388306,4.6438699,16.9612312z M34.8189011,56.8321304
	c-0.9109993,0.7172012-1.774601,1.0798035-2.5639992,1.0787048c-0.1298027-0.0003052-0.2593021-0.0105057-0.3872013-0.0306015
	c-0.4354-0.0659027-0.7089996-0.2276001-0.9747009-0.3807983c-0.2658005-0.1532059-0.5229988-0.3031006-0.9923992-0.3835068
	c-0.3383007-0.0575943-0.6858006-0.0511932-1.0213013,0.0189056c-0.3114986,0.0510941-0.6327991,0.1035995-1.0943985,0.0219955
	c-0.6892014-0.1212006-1.3334007-0.4884949-1.9192009-1.0914993c-0.5872993,0.6014023-1.2325001,0.9669037-1.9221001,1.0862045
	c-0.4617996,0.0802994-0.7801991,0.0270004-1.0942993-0.0251007c-0.3353004-0.0709991-0.6828003-0.0783005-1.0213013-0.0215988
	c-0.4723988,0.0789948-0.7264996,0.2255936-0.9933987,0.3806992c-0.266901,0.155098-0.5402012,0.3107986-0.9757996,0.3780975
	c-0.1279011,0.0196991-0.2575016,0.0296021-0.3873005,0.0296021c-0.7922001-0.0010986-1.6520004-0.3655014-2.5608997-1.0858994
	c-0.0702-0.0567017-0.1132011-0.1367035-0.1197014-0.2225037c-0.0064983-0.0858002,0.0240002-0.1705017,0.0848999-0.2357025
	c0.0609016-0.0651932,0.1472015-0.1055984,0.2403011-0.1124954c0.0930996-0.0069046,0.1854,0.0203018,0.2568989,0.0755997
	c0.891901,0.7072983,1.6887016,1.0121002,2.3683014,0.9072952c0.2964993-0.0459976,0.4825001-0.1528931,0.7166996-0.2876968
	c0.3647003-0.2287979,0.7763004-0.3865967,1.2096996-0.4636002c0.4333-0.0769958,0.8791008-0.071701,1.3101997,0.0157013
	c0.2835999,0.0467987,0.5041008,0.0837021,0.8374996,0.026001c0.625-0.108902,1.2220001-0.4967041,1.7747002-1.1543045
	l0.0064011-0.0065002c0.0077991-0.0084991,0.0163994-0.0162964,0.0249004-0.0240936
	c0.0084991-0.0079041,0.0169983-0.0157013,0.0261993-0.0229034l0.0070992-0.0057983
	c0.0064011-0.0046005,0.0135002-0.0072021,0.0199013-0.0118027c0.0063992-0.0045013,0.0205994-0.0123978,0.0319996-0.017601
	c0.0102997-0.0047989,0.0209999-0.009201,0.0319004-0.0130005l0.0311985-0.010994
	c0.0117016-0.003006,0.0235004-0.0054016,0.0355015-0.0072021c0.0102997-0.0020981,0.0206985-0.0036011,0.0311985-0.0045013
	c0.012001-0.0006027,0.0241013-0.0006027,0.0362015,0c0.0105991-0.0006027,0.0212994-0.0006027,0.0318985,0.0000992
	c0.0228004,0.0019989,0.0453014,0.0060043,0.0674019,0.0118027c0.0112991,0.0032959,0.0224991,0.0072021,0.0332985,0.011795
	c0.0102005,0.0033035,0.0200996,0.0072021,0.0297012,0.0118027c0.0117989,0.0060043,0.0230999,0.0124969,0.0340996,0.0196991
	c0.0063992,0.0029984,0.0125999,0.0065002,0.0184002,0.010498l0.0063992,0.0052032
	c0.009901,0.0077972,0.0184002,0.0157013,0.0276012,0.0242004c0.0085983,0.0074005,0.0165997,0.0151978,0.0240993,0.0234985
	l0.0063,0.0065994c0.5494995,0.6591034,1.1453991,1.0466003,1.7714996,1.1592026
	c0.3332996,0.0586014,0.5561008,0.0223007,0.8376999-0.0237045c0.4311008-0.0861969,0.8768997-0.0903931,1.3099003-0.0120926
	c0.4330006,0.0781937,0.844101,0.2370987,1.2080002,0.4668961c0.2346001,0.135498,0.4202003,0.242897,0.7166004,0.2897034
	c0.6785984,0.1066971,1.4769001-0.1939011,2.3707981-0.9007034c0.071701-0.0551987,0.1640015-0.0820999,0.257103-0.0749969
	c0.0929985,0.0071945,0.1792984,0.0478973,0.2399979,0.1131973c0.0606995,0.0653992,0.0909996,0.1501999,0.0842018,0.2359009
	c-0.0067024,0.0858002-0.0499001,0.1657028-0.1202011,0.2222977H34.8189011z"/>
<path class="st7" d="M16.8227997,23.5939331c-0.0774002-0.0002022-0.1548004,0.0030975-0.2318993,0.0102005
	c-0.6966-0.344101-1.3059006-0.8205032-1.7875004-1.3976021c-1.7135-2.0722008-1.0092001-4.6492996-0.8944998-5.0435982
	c-0.2514,0.248497-2.6591005,2.7048988-1.9404001,6.1427994c0.4763002,2.2821007,2.0566998,3.6865997,3.0684996,4.3750992
	c0.2391005,0.2106018,0.5199003,0.3770981,0.8270006,0.4903984l0.0134993,0.0065002
	c-0.0042992-0.0015984-0.0084-0.0037994-0.0120993-0.0065002c0.3526001,0.1290016,0.731699,0.184803,1.1103001,0.1634026
	c0.3787003-0.0214996,0.7474995-0.1196022,1.0800991-0.2875023c0.3327007-0.1677971,0.6210003-0.4012985,0.8444004-0.6835976
	c0.2233009-0.2823029,0.3761997-0.6066017,0.4477997-0.9496994c0.0716-0.3430023,0.0600014-0.6964035-0.0338001-1.0349998
	c-0.0938988-0.338501-0.2677002-0.653801-0.5091-0.9233017s-0.5443993-0.486702-0.8874989-0.6360016
	c-0.3430004-0.1492004-0.7175007-0.2268982-1.0969009-0.2274971L16.8227997,23.5939331z"/>
<path class="st7" d="M37.9235001,17.1969337c0.1142998,0.3920975,0.8115005,2.9735985-0.9076996,5.0410995
	c-0.4832993,0.5755997-1.0938988,1.0500984-1.7913017,1.3919983c-0.0770988-0.0071983-0.1544991-0.0107994-0.2318993-0.0107994
	c-0.3793983-0.0004005-0.7542,0.0763016-1.097599,0.2245979c-0.343399,0.1483002-0.6471024,0.3646011-0.8892021,0.633503
	c-0.2421989,0.268898-0.4168968,0.5836983-0.5115967,0.9218979c-0.0948029,0.3383026-0.1072998,0.6917-0.0367012,1.0349007
	c0.0705986,0.3432999,0.222599,0.6679993,0.4451981,0.950901c0.2226028,0.2830009,0.5102005,0.5172005,0.8423996,0.6860008
	c0.3322029,0.1686974,0.7008018,0.2678986,1.0793037,0.2903976c0.3785973,0.0224991,0.7578964-0.0321999,1.1107979-0.1602974
	l-0.0121002,0.0064964l0.0135002-0.0064964c0.3074989-0.1125031,0.5886993-0.2781029,0.8283997-0.488102l0,0
	c1.0137024-0.6856995,2.5979996-2.0864983,3.0806007-4.3666C40.5750999,19.9092331,38.1749001,17.4461327,37.9235001,17.1969337z"/>
<path class="st7" d="M28.2908001,11.1702337l-2.3754997,6.8815966l-2.3565998-6.8880968
	c-0.1176014-0.3428001-0.1457005-0.7062016-0.082201-1.0608997c0.0635014-0.3546009,0.2168999-0.6904011,0.4477997-0.9802017
	c0.2308998-0.2896996,0.5328007-0.5252991,0.8810005-0.6873989c0.3483009-0.1622009,0.7333012-0.2464008,1.1236-0.2459011
	c0.3903008,0.0006008,0.7749996,0.0859013,1.1228008,0.2490005c0.3477993,0.1631012,0.6490002,0.3994007,0.8790989,0.6898003
	c0.2301006,0.2903996,0.3826008,0.6266994,0.4452,0.9815006C28.4384995,10.4644327,28.4092999,10.8278322,28.2908001,11.1702337z"/>
<path class="st8" d="M4.9114399,25.6335335c0,0,0.84656,3.2838974,8.8556604,7.1315994
	C21.7763004,36.6128311,21.7329998,43.291832,21.007,43.6396332c0,0,0.0083008-0.8712997-0.6916008-1.462101
	c-0.5667992-0.4788017-1.2971992-0.5163994-1.5922985-0.5306015c-1.8871002-0.0914001-3.7635002-0.3421974-5.6514006-0.3995972
	c-3.8744001-0.1184006-6.7939-4.0433006-7.1648602-4.5415001C2.31622,31.8839302,4.6795001,26.1603317,4.9114399,25.6335335z"/>
<path class="st7" d="M46.9023018,25.6915321c0,0-0.8556023,3.281498-8.8753014,7.1071014
	c-8.0198002,3.8254967-7.9948997,10.5046997-7.2699013,10.8544998c0,0-0.0057983-0.8714027,0.6957016-1.4602013
	c0.5681-0.4772987,1.2979012-0.5129013,1.5937004-0.5261993c1.8873978-0.0862007,3.7644005-0.3318024,5.6525002-0.3841019
	c3.8746986-0.1075974,6.8050003-4.0243988,7.1772995-4.5215988C49.4760017,31.9490318,47.1292,26.2189331,46.9023018,25.6915321z"/>
<path class="st9" d="M2.49561,40.3864326c0.26491,0.2495003,0.5385799,0.4892998,0.8210199,0.7196007
	c1.52741,1.2430992,3.32686,2.2056999,5.2495799,2.7465973c0.2410498,0.0656013,0.47997,0.1352005,0.7245903,0.1851997
	l0.36444,0.081501c0.1198301,0.0263023,0.2354002,0.0473022,0.3545599,0.071701l1.4081001,0.2756004
	c0.9380999,0.1834984,1.8754997,0.3610992,2.8043003,0.5564003c0.4636993,0.0993004,0.9252996,0.2024002,1.3797998,0.3225975
	c0.2254,0.0611,0.4509001,0.1240997,0.6713991,0.1968994c0.2200012,0.0706024,0.4353008,0.1529007,0.6450005,0.2464027
	c0.4220009,0.1792984,0.7959995,0.4417992,1.0955009,0.7689972c0.1488991,0.1680984,0.2789001,0.3497009,0.3878994,0.5419998
	c0.1093998,0.1956024,0.2070999,0.3965988,0.292799,0.602005c-0.1243-0.4248047-0.2824993-0.8495026-0.5529995-1.2300034
	c-0.2772999-0.3803978-0.6422997-0.6997986-1.0688992-0.9355011c-0.2082996-0.1208-0.4241009-0.2300987-0.6464005-0.3274994
	c-0.2196999-0.1002007-0.4443998-0.1886978-0.6690998-0.2751999c-0.4502001-0.1697998-0.9046001-0.3213005-1.3597002-0.4682007
	c-0.9110003-0.2912979-1.8241005-0.5642967-2.7343998-0.839798l-1.3626003-0.4160004
	c-0.1126995-0.0348015-0.2290001-0.0689011-0.3381796-0.1049995L9.63906,42.9965324
	c-0.2169399-0.0656013-0.4253302-0.1547012-0.6380005-0.2346992c-1.6609797-0.6694031-3.1473293-1.6582031-4.3592696-2.9001007
	c-0.60045-0.611702-1.13781-1.2733994-1.60513-1.9766998c-0.2328501-0.350399-0.4479699-0.709301-0.6425099-1.0734024
	c-0.09621-0.1829987-0.19028-0.3659973-0.27372-0.5496979c-0.0431399-0.0914993-0.0834301-0.1828995-0.1209-0.2724991
	c-0.0197999-0.0451012-0.03605-0.0895004-0.05443-0.130703l-0.02403-0.0653l-0.00989-0.0280991l-0.00494-0.0144005
	c0,0,0,0,0-0.0038986c-0.01799-0.0839005-0.04546-0.165802-0.0819399-0.2444
	c-0.12723-0.2728996-0.36253-0.4909019-0.65804-0.6096992L2.49561,40.3864326z"/>
<path class="st8" d="M16.0429993,48.0476303c-0.2693996-0.0571976-0.5416994-0.0987015-0.8139992-0.1316986
	c-0.1362-0.0192032-0.2736998-0.0310974-0.4091997-0.0469971l-0.4106007-0.036499
	c-0.5460997-0.0425034-1.0928993-0.0596008-1.6382999-0.0551071c-0.5453997,0.0045013-1.0879993,0.0253067-1.6313,0.0715027
	c-0.2695999,0.0178986-0.5376997,0.0495987-0.8058996,0.0779037c-0.1290998,0.0154953-0.2837,0.0270996-0.42556,0.0412979
	C9.7662697,47.982132,9.6194401,47.9950333,9.47474,48.004631L9.0406504,48.024231l-0.2177505,0.0089035l-0.6525002-0.0009003
	c-0.1453896-0.0041046-0.2900696-0.0109024-0.4354596-0.0156021l-0.21773-0.0082016
	c-0.07092-0.0000992-0.14183-0.0093002-0.21701-0.0139999l-0.43543-0.0318985l-0.43258-0.0444031
	c-0.07091-0.0078964-0.14183-0.014595-0.217-0.0231934L6.00246,47.8659286
	c-0.1567202-0.0205002-0.3127198-0.0421982-0.46943-0.0658951c-0.4093299-0.7870026-0.7992501-1.596302-1.1697502-2.4281006
	c0.2005901,0.0923996,0.4054403,0.1821976,0.6124201,0.2667007c0.4763503,0.1965981,0.9640603,0.3755989,1.46103,0.5310974
	l0.18716,0.0597c0.0623803,0.019001,0.1247802,0.0367012,0.18787,0.0550995L7.18822,46.3921318l0.3800302,0.0965996
	c0.0638099,0.0157013,0.1269097,0.0334015,0.1907196,0.0479012l0.1921501,0.0414009l0.3849998,0.0821991l0.3878708,0.0657959
	l0.1942892,0.0343018l0.1943007,0.0257034l0.3928499,0.0521011c0.1304798,0.0151978,0.2609701,0.0233002,0.3928699,0.0358963
	c0.1318998,0.0125046,0.2580996,0.023201,0.4041996,0.0325012c0.2837,0.0193024,0.5674,0.0354004,0.8474998,0.0664978
	c0.5623007,0.0511017,1.1211004,0.1282043,1.6742001,0.2218018c0.5531006,0.0934982,1.0998001,0.2085037,1.6386003,0.347702
	l0.4013004,0.1090012c0.1325998,0.0399933,0.2665997,0.0760956,0.3976994,0.1194
	C15.5284004,47.8555298,15.79,47.9428329,16.0429993,48.0476303z"/>
<path class="st8" d="M12.6014004,49.4759293c-0.1970005,0.2574997-0.4145002,0.5013046-0.6507006,0.7293015
	c-0.1163998,0.1193008-0.2463999,0.2249985-0.3741999,0.3358002c-0.0653,0.0541-0.1342001,0.1043015-0.2016001,0.1572037
	l-0.1022997,0.0774994c-0.0340004,0.0254974-0.0710001,0.0488968-0.1057005,0.072998
	c-0.5802994,0.4008026-1.2255592,0.7148972-1.9120398,0.9307022c-0.38274,0.1226959-0.7750196,0.218399-1.17348,0.286499
	c-0.36759-0.5400009-0.7254701-1.0943985-1.0736399-1.6631012c0.0638099,0.0157013,0.1276298,0.030899,0.1914401,0.0447006
	c0.5938101,0.1359024,1.20433,0.1999969,1.8161101,0.1905975c0.6300697-0.009201,1.2545099-0.1103973,1.8501101-0.2998962
	c0.0382996-0.0122986,0.0773993-0.0233994,0.1149998-0.0357056l0.1120996-0.0409927
	c0.0709-0.0287018,0.1511002-0.0547028,0.2256002-0.0853043c0.1462002-0.0651016,0.2981005-0.125,0.4400997-0.2012024
	C12.0523005,49.8282318,12.3341999,49.6613312,12.6014004,49.4759293L12.6014004,49.4759293z"/>
<path class="st7" d="M50.6175003,34.9606323c-0.3333015,1.8525009-0.7821999,3.6856003-1.3445015,5.4905014
	c-0.2655983,0.2486992-0.5398979,0.4877968-0.822998,0.7172966c-1.5307999,1.238903-3.3365021,2.1965027-5.2579002,2.7321014
	c-0.2405014,0.0648994-0.479599,0.1338005-0.7243996,0.1831017l-0.3646011,0.0804977
	c-0.1198997,0.026001-0.2355003,0.0466995-0.3546982,0.0707016l-1.4083023,0.271801
	c-0.9391975,0.1808968-1.8770981,0.3558998-2.8064995,0.5485992c-0.4640007,0.0979996-0.9222984,0.1998978-1.3806,0.3187981
	c-0.2256012,0.0605011-0.4519997,0.1229019-0.6711998,0.1951027c-0.2205009,0.0698967-0.4362984,0.1515999-0.6464996,0.2446976
	c-0.4225998,0.1777992-0.7973022,0.4393997-1.0974998,0.7659035c-0.1493988,0.1676941-0.2798996,0.3488998-0.3894005,0.5408936
	c-0.1100006,0.1953049-0.2083015,0.3960037-0.2944984,0.6012039c0.1260986-0.4244003,0.2848969-0.8487015,0.5569992-1.2285004
	c0.2779999-0.3796997,0.6436996-0.698101,1.0709-0.9324989c0.2084007-0.1205025,0.4244995-0.2293015,0.6471977-0.3257027
	c0.2200012-0.0995979,0.4449997-0.1875,0.6699028-0.2733994c0.4505997-0.168499,0.9054985-0.3187981,1.3610001-0.4645004
	c0.9124985-0.2887001,1.8256989-0.5592003,2.7360001-0.8321991l1.3644981-0.4122009
	c0.1128006-0.0345001,0.2290993-0.0682983,0.3384018-0.1040993l0.323597-0.1072998
	c0.2171021-0.0649986,0.4257011-0.1535988,0.6386032-0.2329979c1.6627998-0.6648026,3.1518974-1.6495018,4.3672981-2.8880005
	c0.6021004-0.6100006,1.1413002-1.2703018,1.6105003-1.9723015c0.2338982-0.3497009,0.4500008-0.7080002,0.6455002-1.0714989
	c0.0966988-0.1828003,0.1912994-0.3656006,0.2751999-0.5489998c0.0427017-0.0914001,0.0839996-0.1827011,0.1217003-0.2722015
	c0.0199013-0.0449982,0.0369987-0.0894012,0.0547981-0.1305008l0.0242004-0.0653l0.0100021-0.0280991l0.0048981-0.0143013
	c0,0,0,0,0.0000992-0.0039978c0.0395012-0.1868019,0.1277008-0.3619995,0.257-0.510601
	C50.2615013,35.1541328,50.4280014,35.0367317,50.6175003,34.9606323z"/>
<path class="st10" d="M47.3881989,45.4325333c-0.3713989,0.8306999-0.7635002,1.6389999-1.1763992,2.4247971
	c-0.1567993,0.0233002-0.3129005,0.0446014-0.4696007,0.0645981l-0.2128983,0.0285034
	c-0.0709,0.0084-0.1417999,0.014801-0.2169991,0.0224991l-0.4327011,0.0431976l-0.4355011,0.0307007
	c-0.0709991,0.0045013-0.1418991,0.0102997-0.2170982,0.013504l-0.217701,0.0074997
	c-0.145401,0.0044022-0.2901001,0.0106964-0.4347992,0.0143967l-0.4361992-0.0005951l-0.2170029-0.0003052l-0.2178001-0.0093994
	l-0.4339981-0.0208969c-0.1417999-0.0100021-0.2900009-0.0258026-0.4340019-0.0378036
	c-0.1439972-0.0118942-0.2929001-0.0264969-0.425499-0.0423965c-0.2680016-0.0290985-0.5368004-0.0615005-0.8055992-0.080101
	c-0.5396996-0.0477982-1.082901-0.0700989-1.6311989-0.0761032c-0.5482025-0.0059967-1.0915031,0.0096054-1.6391029,0.050705
	l-0.4099998,0.0353012c-0.135498,0.0154953-0.273098,0.0270996-0.4085999,0.0457993
	c-0.273098,0.0335999-0.5454979,0.0743942-0.8150978,0.1295013c0.2533989-0.1028061,0.5144997-0.1906052,0.7805977-0.271904
	c0.132-0.0429001,0.2653008-0.0786972,0.3987007-0.1183014l0.4015999-0.1078949
	c0.5387993-0.1377029,1.0849991-0.2521057,1.6389008-0.3432007c0.553299-0.0920029,1.1123009-0.1677017,1.675499-0.2172012
	c0.283699-0.0296021,0.5632019-0.044899,0.8469009-0.0641022c0.1460991-0.0090027,0.2709999-0.0212021,0.4043007-0.0315018
	c0.1334-0.0102005,0.2625008-0.0197983,0.3929977-0.0346985l0.3922997-0.0510025l0.1951027-0.0252991l0.1942978-0.0335999
	l0.3880997-0.0647964l0.3859024-0.0811005l0.1916008-0.0409012c0.063797-0.0142975,0.1269989-0.0317993,0.1907997-0.0473976
	L44.5583,46.4475327l0.3774986-0.1066017l0.1873016-0.0545998l0.1872978-0.0592003
	c0.4967003-0.1540985,0.9856033-0.3323975,1.4625015-0.5270004C46.9822998,45.613533,47.1874008,45.5243301,47.3881989,45.4325333z"
	/>
<path class="st7" d="M44.542099,50.4986343c0.0639-0.0136032,0.1277008-0.0286026,0.1916008-0.0442047
	c-0.3498001,0.5687027-0.7094002,1.1220016-1.0788994,1.660202c-0.3981018-0.0692978-0.7897987-0.1660995-1.1720009-0.2897034
	c-0.6860008-0.217598-1.3303986-0.533493-1.9094009-0.935997c-0.0347977-0.0242004-0.0709-0.0477982-0.1055984-0.0732956
	l-0.1020012-0.0778046c-0.0709-0.0530014-0.1361008-0.1034012-0.2012978-0.1576996
	c-0.1275024-0.1111984-0.257103-0.2172012-0.3733025-0.3368988c-0.2355003-0.2285995-0.4522972-0.4729996-0.6485977-0.731102
	c0.2667999,0.1861038,0.5481987,0.3536987,0.8418999,0.5014038c0.1417007,0.0766983,0.2933998,0.137001,0.4393997,0.2024994
	c0.0709,0.0307999,0.151001,0.0569992,0.225399,0.0858994l0.1128006,0.0412979
	c0.0368004,0.0123978,0.075798,0.0235977,0.1141014,0.0360031c0.5950966,0.1911011,1.2192001,0.2939987,1.8492966,0.3050003
	C43.3372002,50.6953354,43.9478989,50.6329346,44.542099,50.4986343L44.542099,50.4986343z"/>
<path class="st7" d="M23.3973007,22.1442337c0.0217991-0.6466026-0.0673008-1.2923012-0.264101-1.9134026
	c-0.1947994-0.6044998-0.4620991-1.1870995-0.7968998-1.7371979c-0.0862999-0.1373024-0.1662998-0.274601-0.2560997-0.4099007
	l-0.270401-0.4014015l-0.2873993-0.3922997c-0.0956001-0.1306992-0.1989994-0.2615013-0.2973995-0.3889999
	c-0.4048996-0.5165977-0.8304996-1.0213995-1.2744999-1.521697c-0.1076012-0.1254997-0.2224007-0.2504005-0.3341999-0.3747025
	c-0.1119003-0.1241989-0.2125015-0.2353973-0.3541012-0.4073982c-0.1323986-0.1563015-0.2484989-0.3230019-0.3673992-0.4910011
	c-0.0580997-0.0842991-0.1110992-0.171299-0.1662998-0.2614994c-0.0269012-0.0431004-0.0552006-0.0862999-0.0813999-0.1307011
	l-0.0757008-0.1308002c-0.0480995-0.0901985-0.1026001-0.1791-0.1415005-0.2724991l-0.1343994-0.2777996
	c-0.0806007-0.1876011-0.1625996-0.3778-0.227499-0.5712013c-0.1382008-0.3867989-0.2436008-0.7827988-0.3154011-1.1845989
	c-0.1303005-0.7378006-0.166399-1.4871006-0.1075993-2.2325993c0.7484989-0.1949005,1.4898987-0.3559017,2.2276993-0.4946003
	c0.9173012-0.1732006,1.8182011-0.3052006,2.6907005-0.4006004c-0.0319004,0.0776005-0.0687008,0.1534996-0.1103001,0.2271004
	l0.0042992-0.0098V8.3614321h-0.0035l-0.0049992,0.0052013c-0.0083008,0.007-0.0158997,0.0146999-0.0226994,0.0227985
	C22.4104996,8.407733,22.3934994,8.4292326,22.3764,8.4514322c-0.0340996,0.0450001-0.0709991,0.0946007-0.1044006,0.1449013
	C22.2008991,8.6987333,22.1348,8.8077326,22.0694008,8.9187326c-0.1313,0.2262001-0.2483006,0.4591007-0.3506012,0.6977005
	c-0.2068005,0.4750996-0.3484993,0.9720993-0.4218998,1.4794998c-0.0352001,0.2507-0.0494995,0.5035-0.0429001,0.7563
	c-0.0002003,0.1266994,0.0137997,0.2514,0.0242996,0.3787994l0.026701,0.1888008
	c0.007,0.0653,0.0238991,0.1254997,0.0352001,0.1887989l0.0175991,0.0948009c0.007,0.0319996,0.016901,0.0653,0.0247002,0.093399
	c0.016901,0.0621014,0.0317001,0.1261005,0.0508003,0.1888008c0.0415993,0.1235008,0.0790997,0.2509003,0.1327991,0.3724995
	c0.0396004,0.1117001,0.1251011,0.2810001,0.1959,0.4320011c0.0707016,0.1509991,0.1478004,0.3058987,0.2185001,0.4620991
	c0.2898998,0.6175995,0.5656013,1.2476006,0.8194008,1.8886976c0.0606995,0.1613998,0.1257992,0.3202019,0.1844006,0.4830017
	l0.1709995,0.4888l0.1546001,0.4958992c0.0494003,0.1653023,0.0902996,0.3352013,0.1355,0.5012016
	c0.1732006,0.6702003,0.2656994,1.3558998,0.2758999,2.0447006C23.7269001,20.8293304,23.6175995,21.5007324,23.3973007,22.1442337z
	"/>
<path class="st7" d="M34.0970001,11.2984324c-0.0736008,0.4013996-0.1800995,0.7971001-0.3185997,1.1837006
	c-0.0656013,0.1959-0.1481018,0.3831997-0.2299004,0.5704994l-0.1343994,0.277401
	c-0.0427017,0.093399-0.0974998,0.1821003-0.1458015,0.2721996l-0.0760994,0.1305008
	c-0.0262985,0.0443993-0.0546989,0.0874996-0.0816994,0.1304989c-0.0555,0.0867996-0.108799,0.1736012-0.167099,0.2611008
	c-0.1193008,0.1676998-0.2359009,0.3340988-0.3687019,0.4899979c-0.1363983,0.1716003-0.239399,0.2786026-0.3551979,0.4064026
	c-0.1158028,0.1278992-0.2266006,0.2486-0.3346024,0.3737984c-0.4445992,0.4990997-0.8715992,1.0026999-1.2786999,1.5180998
	c-0.0986996,0.1305008-0.2024994,0.2576981-0.298399,0.3881989l-0.2884998,0.3915024l-0.2714996,0.4006996
	c-0.0902004,0.1350975-0.1706009,0.2720985-0.2573013,0.4091988c-0.3361988,0.549202-0.605299,1.1310997-0.8023987,1.7349014
	c-0.1979008,0.620697-0.2885017,1.266098-0.2686005,1.9127998c-0.2178001-0.6434021-0.3248005-1.3142014-0.3171005-1.9880028
	c0.012001-0.688797,0.1065006-1.3742981,0.2814999-2.0439987c0.0450001-0.1657982,0.0869999-0.335598,0.1368999-0.5008011
	l0.1560001-0.4954987l0.1723003-0.4883003c0.0590992-0.1625977,0.1238995-0.3211975,0.1858006-0.4824982
	c0.2547989-0.6402998,0.532999-1.269599,0.8246002-1.8864012c0.0710983-0.1559982,0.1422997-0.3074989,0.219799-0.4614983
	c0.0774994-0.1540012,0.1571999-0.3198013,0.1970005-0.4315014c0.0541-0.1213989,0.0918999-0.2486992,0.1338997-0.3720989
	c0.0191994-0.0653,0.0342007-0.1266003,0.0513-0.1886997c0.0079002-0.0313015,0.0177994-0.0613003,0.0242996-0.0933018
	l0.0184994-0.0946999c0.0115013-0.0653,0.0286007-0.1246986,0.0357018-0.1886997l0.0272999-0.1887989
	c0.0107994-0.1273003,0.0243988-0.2520008,0.0252991-0.3787003c0.0072994-0.2528-0.0063-0.5056-0.0408001-0.7565002
	c-0.0720005-0.5074997-0.2124004-1.0049-0.417799-1.4806004c-0.1020012-0.238699-0.218401-0.4720001-0.3487015-0.6987
	c-0.0650997-0.1110992-0.1329994-0.2203007-0.2017002-0.3228989c-0.0346985-0.0504017-0.0707989-0.1000004-0.1040993-0.1452007
	c-0.0168991-0.0221996-0.0338993-0.0438004-0.0494995-0.0620995c-0.0069008-0.0082016-0.0144997-0.0158005-0.0226994-0.0229015
	l-0.0049019-0.0051994V8.377532l0.0042019,0.0098c-0.0413017-0.0745983-0.0776005-0.1513996-0.1089001-0.2299995
	c0.8722,0.0978012,1.7727985,0.2322998,2.6896,0.4080009c0.733799,0.1407986,1.4782982,0.3064003,2.2262993,0.5007992
	C34.2692986,9.8118334,34.2302017,10.5610323,34.0970001,11.2984324z"/>
<linearGradient id="SVGID_6_" gradientUnits="userSpaceOnUse" x1="12.4945087" y1="23.0068493" x2="12.5667095" y2="9.9436464" gradientTransform="matrix(1 0 0 -1 0 49.1228638)">
	<stop  offset="0.0759708" style="stop-color:#000000"/>
	<stop  offset="1" style="stop-color:#24C5EC"/>
</linearGradient>
<path class="st11" d="M19.9013004,40.80933c-0.3066998-1.2987976-0.9001007-2.5256996-1.7432995-3.6044998
	c-1.9704018-2.4846992-4.4019012-2.8622971-8.3829813-5.3758965c-1.59198-1.0074005-3.0889196-2.1367035-4.4749298-3.3758011
	c-0.0887599,0.5942993-0.82407,6.1202011,3.1840305,9.6025009c0.81394,0.7070999,2.3305798,2.0278969,4.5592794,2.3575974
	c1.0735998,0.160202,1.8717003,0.0267029,4.5389004,0.2022018C18.5624008,40.6762314,19.3630009,40.7531319,19.9013004,40.80933z"/>
<linearGradient id="SVGID_7_" gradientUnits="userSpaceOnUse" x1="39.2317505" y1="11.7432718" x2="39.244648" y2="21.1159725" gradientTransform="matrix(1 0 0 -1 0 49.1228638)">
	<stop  offset="0" style="stop-color:#13D5FF;stop-opacity:0.91"/>
	<stop  offset="1" style="stop-color:#000000"/>
</linearGradient>
<path class="st12" d="M31.8656006,40.8256302c0.3099976-1.2974968,0.9057007-2.5226974,1.7504005-3.5996971
	c1.9778976-2.4792023,4.4104004-2.8501015,8.3983994-5.3527031c1.594799-1.0030975,3.094799-2.1281967,4.4841995-3.3633995
	c0.0872002,0.5945015,0.8072014,6.1224022-3.2104988,9.5936012c-0.8159027,0.7048988-2.3362007,2.0214996-4.5657997,2.3450012
	c-1.0740013,0.157299-1.8717003,0.0215988-4.539402,0.1896973C33.2055016,40.6962318,32.4039001,40.7709312,31.8656006,40.8256302z"
	/>
<path d="M24.7908001,53.2359314c0.3766994,0.1927032,0.7362003,0.4126968,1.0750008,0.6578979
	c0.3395996-0.244194,0.6995983-0.4631958,1.0768986-0.6548996c2.0419006-1.0611954,2.4932003-2.2002945,2.3367996-2.4963989
	c-0.0480995-0.0914993-0.2750988-0.0107956-0.3205986,0.0061035c-1.3071003,0.4945984-3.0079002,0.5411987-3.0795002,0.5430984
	h-0.0198994c-0.0184002,0-0.4482002-0.0130005-1.0403004-0.085701c-0.5482006-0.0661011-1.3472996-0.2024002-2.0377998-0.4658966
	c-0.0453014-0.0170059-0.2722015-0.0983047-0.3205013-0.0070038C22.3036995,51.0288315,22.7518005,52.1691284,24.7908001,53.2359314
	z"/>
<path class="st7" d="M42.2008018,4.0736318c-0.780201-0.0010986-1.5880013,1.0428009-2.5110016,2.2296009
	C39.4888,6.5642323,39.2812996,6.8298326,39.0639,7.0999322c-1.1509018,1.4307008-1.7013016,2.4535012-1.7840996,3.3175015
	c-0.0241013,0.2321987-0.0086021,0.4664993,0.0458984,0.6942997c0.2821007,1.1414986,1.4507027,1.796299,2.080101,2.1478996
	L39.5014,13.3126326c2.5513,1.4345989,4.9864006,3.8415003,7.2521019,7.1587992
	c0.0724983-1.1795006,0.1024971-2.3362007,0.0819969-3.4459991c-0.0839005-4.5015993-0.9183998-7.2322989-1.6035995-8.7308989
	c-1.7472-3.8175015-2.711998-4.1663022-2.8169975-4.1932015C42.3452988,4.0831323,42.273201,4.0737329,42.2008018,4.0736318z"/>
<path class="st7" d="M12.7971001,7.0640321c-0.2166004-0.2707005-0.4247999-0.5387993-0.6237001-0.7982998
	c-0.9203997-1.1919994-1.7254-2.2348995-2.5048199-2.2360001c-0.0719004,0-0.1434803,0.0088997-0.2128,0.0265007
	C9.3514795,4.082932,8.3857298,4.4290318,6.6279402,8.2416334C5.9386301,9.7384329,5.09655,12.466733,5.0002599,16.9688301
	c-0.02351,1.110302,0.0004201,2.2658005,0.0725603,3.4455032c2.2741299-3.3110008,4.7193494-5.7111998,7.2717795-7.1388006
	l0.0958004-0.0527c0.6302996-0.3498993,1.8042002-1.0014,2.0859995-2.1420994
	c0.0551004-0.2277012,0.0712004-0.4619007,0.0476999-0.6942005C14.4916,9.522233,13.9420004,8.4980326,12.7971001,7.0640321z"/>
<path class="st5" d="M37.3256989,11.1117334c0.0365028,0.1493988,0.0893021,0.2950001,0.1575012,0.4345989
	c0.263401-0.6868,0.7729988-1.4867992,1.5779991-2.4869995c0.2173996-0.2700996,0.4263-0.5375996,0.6259003-0.7966003
	c0.9237022-1.1894002,1.7314987-2.2307992,2.5110016-2.2297006c0.0718994,0.0003014,0.1434975,0.0097008,0.2126999,0.0277004
	c0.1049004,0.0270004,1.0696983,0.3757992,2.8169975,4.1931996c0.6753006,1.4771004,1.4950027,4.1529007,1.5988998,8.5416002
	c0.0150032-0.6002998,0.0180016-1.1913986,0.0074005-1.7700996c-0.0839005-4.5015993-0.9183998-7.2322989-1.6035995-8.7308989
	c-1.7472992-3.8175015-2.712101-4.1663022-2.8169975-4.1932015c-0.0692024-0.0181007-0.1408005-0.0273991-0.2126999-0.0277004
	c-0.780201-0.0010986-1.5880013,1.0428009-2.5110016,2.2296009C39.4888,6.5642323,39.2812996,6.8298326,39.0639,7.0999322
	c-1.1509018,1.4307008-1.7013016,2.4535012-1.7840996,3.3175015C37.2556992,10.6496325,37.2711983,10.8839331,37.3256989,11.1117334
	z"/>
<path class="st5" d="M6.6231799,10.2011328C8.38097,6.3885331,9.3467197,6.0423322,9.4510098,6.0157323
	c0.0693207-0.0175991,0.1409006-0.0265007,0.2128105-0.0265007c0.78018,0.0011005,1.5850801,1.0472012,2.5047798,2.2359014
	c0.2004004,0.2616005,0.4070997,0.5277004,0.6237001,0.798399c0.8021994,1.0024014,1.3097,1.8038006,1.5711002,2.4913006
	c0.0682993-0.1394997,0.1215-0.2848988,0.1587992-0.4340992l0,0c0.0551004-0.2277012,0.0713005-0.4619007,0.0478001-0.6942005
	c-0.0803995-0.8642998-0.6279993-1.8885002-1.7748995-3.3225007c-0.2167006-0.2707005-0.4247999-0.5387993-0.6238003-0.7982998
	c-0.9203997-1.1919994-1.7252998-2.2348995-2.5047703-2.2360001c-0.0719099,0-0.1434898,0.0088997-0.2128096,0.0265007
	C9.3494196,4.082932,8.3836699,4.4290318,6.6258798,8.2416334C5.9365602,9.7384329,5.09448,12.466733,4.9981899,16.9688301
	C4.9860501,17.5461311,4.98665,18.1373329,5.00072,18.7375336C5.1167002,14.3498335,5.94382,11.6795321,6.6231799,10.2011328z"/>
<path d="M21.5289001,50.2498322l0.0181999,0.1306992c0.0056,0.0430984,0.0147991,0.0868988,0.0247002,0.1306
	c0.0098,0.0438004,0.0182991,0.0868988,0.0324001,0.1306992c0.0140991,0.0438004,0.0247002,0.0876007,0.0424004,0.1306992
	c0.0091991,0.0222015,0.0147991,0.0438004,0.0261002,0.0653c0.0109997,0.0268021,0.0234985,0.0530014,0.0374985,0.0784988
	c0.0046005,0.0068054,0.0095005,0.0133057,0.0149002,0.0195999c0.0443001,0.792305,0.9008999,1.9150009,2.7159996,2.864502
	c0.4238014,0.212204,0.8206005,0.4671021,1.1834011,0.7600021c0.0653992,0.0557022,0.1511993,0.0867004,0.2402992,0.0867996
	c0.0890999,0.0001984,0.1750011-0.0306015,0.2405014-0.0861969c0.3633995-0.2919998,0.7609997-0.5458069,1.1854992-0.7566071
	c1.8176994-0.9445953,2.6774006-2.0648956,2.7238998-2.8570938c0.0053997-0.0062027,0.0104008-0.0128021,0.0149002-0.0195007
	c0.0140991-0.0255051,0.0265999-0.0517044,0.0377007-0.0783997c0.0113983-0.0241013,0.0170994-0.0457001,0.0262985-0.0653
	c0.0171013-0.0450058,0.0292015-0.0886993,0.0428009-0.1305008c0.0135002-0.0418015,0.0228004-0.0868988,0.0321007-0.1306
	c0.0106983-0.0430984,0.0190983-0.0867004,0.0249996-0.1306l0.0192986-0.1306l0.0094013-0.1306
	c0.0051003-0.0855026,0.0051994-0.1712036,0.0004005-0.2566986c-0.0132008-0.3338013-0.079401-0.6639023-0.1966019-0.9800034
	l-0.0910988-0.2299957c-0.0333004-0.0752029-0.0708008-0.1477051-0.1090012-0.2210007l-0.0557995-0.1091003
	c-0.0177002-0.0366058-0.0424995-0.0706024-0.0629997-0.1053009l-0.1294994-0.2078018
	c-0.0212002-0.035202-0.0447998-0.0690994-0.0708008-0.1014023l-0.0707989-0.0979996l-0.1458015-0.1961975l-0.3214989-0.3675003
	l0.2461987,0.4104996l0.1047001,0.2124023l0.0523014,0.1053009c0.0186996,0.0346985,0.0347004,0.0704956,0.0480995,0.1072006
	l0.0848007,0.2168961c0.0134983,0.0360031,0.0296993,0.0712967,0.0402985,0.1078033l0.0325012,0.1110992
	c0.0205002,0.0738983,0.0445004,0.1456985,0.0620995,0.2195969l0.0429993,0.2220993
	c0.0491009,0.2904053,0.0523014,0.5858994,0.0094013,0.8772049c-0.0102997,0.0704956-0.024601,0.1404953-0.0429001,0.2095947
	L29.6229,50.1552353c-0.2175999-0.1244049-0.5310001-0.1667023-0.9354992-0.0130997
	c-1.1354008,0.4294968-2.6802006,0.4894943-2.8192005,0.4937973c-0.0667-0.0000992-0.4517994-0.017601-0.9573994-0.0802994
	c-0.5056019-0.0628052-1.2409-0.1853027-1.8605003-0.4213028c-0.4040012-0.1539993-0.7175999-0.1132965-0.9362011,0.0112
	l-0.0254002-0.0979996c-0.0180988-0.0691986-0.0321999-0.1391983-0.0422001-0.2098007
	c-0.042099-0.2912979-0.0380993-0.5867996,0.0118008-0.8770981l0.0436001-0.2220001
	c0.0177994-0.0737991,0.0419998-0.1455994,0.0627003-0.2193985l0.0327988-0.1110001
	c0.009901-0.0365982,0.0270004-0.0718002,0.0405006-0.1077042l0.0855007-0.2166977
	c0.0133991-0.0366974,0.0296001-0.072403,0.0482998-0.1071014l0.0527-0.1050949l0.1051998-0.2121048l0.2474003-0.4097977
	l-0.3225002,0.3666l-0.1464005,0.1957016l-0.0709991,0.0979004c-0.0261002,0.032196-0.0499001,0.0659943-0.0711002,0.1010971
	l-0.1301003,0.2076035c-0.0205994,0.0345993-0.0454998,0.0651932-0.0632,0.1049957l-0.0562,0.1090012
	c-0.0363007,0.0730972-0.0760994,0.1455994-0.1096001,0.2205963l-0.0918007,0.229805
	c-0.1178989,0.3157959-0.1852989,0.6457977-0.1998997,0.9794998c-0.0000992,0.0848999-0.0051994,0.1710968-0.0004005,0.2566986
	L21.5289001,50.2498322z M22.4608002,50.7331314c0.048399-0.0914001,0.2751999-0.0100021,0.3206005,0.0070038
	c0.6905003,0.2621994,1.4888992,0.3984985,2.0376987,0.4658966c0.5921001,0.0727005,1.0219002,0.085701,1.0404015,0.085701
	h0.0197983c0.0710011,0.0000992,1.773201-0.0485001,3.0796013-0.5430984
	c0.0453987-0.0168991,0.2724991-0.0976028,0.3205986-0.0061035c0.1563015,0.2961044-0.294899,1.4365997-2.3368988,2.4963989
	c-0.3772011,0.1917038-0.7373009,0.4107056-1.0767994,0.6548996c-0.3388004-0.2452011-0.6983013-0.4650955-1.0750008-0.6578979l0,0
	C22.7518005,52.1691284,22.3036995,51.0288315,22.4608002,50.7331314L22.4608002,50.7331314z"/>
<path d="M13.0822001,6.8695321c-0.2124004-0.2687988-0.4204998-0.5354996-0.6201-0.7938004
	c-1.1264-1.4599991-2.0171003-2.6154003-3.1040001-2.3346996c-0.3547497,0.0916004-1.36625,0.700901-3.0557599,4.371901
	c-1.0065799,2.1833992-1.5789099,5.2432995-1.65622,8.8472986c-0.0272999,1.2780991,0.00916,2.6184998,0.1065698,3.9842987
	c0.0023704,0.0347023,0.0167203,0.0677032,0.0409303,0.0943031c0.0242,0.0265999,0.0570097,0.0452995,0.0936198,0.0534973
	c0.0139198,0.0032005,0.0282102,0.0046997,0.0425501,0.0046997c0.0302801-0.0000992,0.06005-0.0071983,0.0865002-0.0206985
	c0.0264497-0.0135994,0.0487099-0.0331993,0.0646696-0.0569c2.32828-3.4917984,4.8311-6.0022993,7.4480405-7.4656992
	l0.0951996-0.0520992c0.6757002-0.3753014,1.9334002-1.073101,2.2486-2.3482018
	c0.0629005-0.2609997,0.0815001-0.5292988,0.0550003-0.7954998C14.8389997,9.4303331,14.2702999,8.3544321,13.0822001,6.8695321z
	 M14.5240002,11.0797319c-0.2853003,1.1407013-1.4556999,1.7922001-2.0860004,2.1421013l-0.0957994,0.0527992
	c-2.5552406,1.4275017-4.9969101,3.8277006-7.2717505,7.1386976C5.0011501,19.2336311,4.97438,18.0768318,4.99789,16.9678307
	c0.0962901-4.5019979,0.9383702-7.2303972,1.6276898-8.7270975c1.7577906-3.8127007,2.7235403-4.1588006,2.8278303-4.1854005
	C9.5227299,4.0377316,9.5943098,4.028832,9.6662197,4.028832c0.78018,0.0011005,1.5850801,1.0472012,2.5047798,2.2359009
	c0.2004004,0.2615986,0.4071007,0.5277004,0.6237001,0.798399c1.1470003,1.4339013,1.6946001,2.4582009,1.7749004,3.3224015
	C14.5937996,10.617732,14.5783997,10.8519335,14.5240002,11.0797319L14.5240002,11.0797319z"/>
<path d="M39.4003983,6.1132321c-0.1995964,0.2578011-0.4063988,0.5219994-0.6215973,0.7915001
	c-1.1921997,1.4823003-1.7639008,2.556601-1.8524017,3.4832997c-0.0271988,0.2660999-0.0093002,0.5345001,0.0527992,0.7956009
	c0.3117027,1.2766991,1.5675011,1.9778996,2.2429008,2.3544006l0.0942993,0.0523987
	c2.6100998,1.4692993,5.1109009,3.9886999,7.4274025,7.4849005c0.0158997,0.0237999,0.0380974,0.0433998,0.0644989,0.0569992
	c0.0264015,0.0136986,0.0561981,0.0209007,0.0864983,0.0209999c0.0143013,0.0000992,0.0286026-0.0014,0.0425034-0.0045013
	c0.0365982-0.0081978,0.069397-0.0268974,0.0936966-0.0533981c0.0243034-0.0265007,0.0387001-0.0595016,0.0413017-0.094101
	c0.1012001-1.3648987,0.1413002-2.705101,0.1175995-3.9840012c-0.0659981-3.6048975-0.6292-6.6630964-1.6317978-8.8518972
	c-1.6823006-3.6763005-2.6892014-4.2883-3.0437012-4.380301C41.4247017,3.5054326,40.531601,4.6563325,39.4003983,6.1132321z
	 M45.2316017,8.2943335c0.6851997,1.4986,1.5197983,4.2292995,1.6035995,8.7309999
	c0.0205002,1.1102982-0.0074005,2.2663994-0.0820007,3.4459c-2.2649994-3.3171997-4.7036018-5.7242002-7.2521019-7.1588011
	l-0.0956001-0.0529995c-0.6292992-0.3516006-1.8014984-1.0063992-2.0800972-2.1478004
	c-0.0545006-0.2278996-0.0699997-0.4622002-0.0459023-0.6943989c0.0828018-0.8640003,0.6332016-1.8866997,1.7840996-3.3175015
	c0.2173996-0.2700996,0.4263-0.5375996,0.6259003-0.7966995c0.9237022-1.1893997,1.7315025-2.2306995,2.5110016-2.2296009
	c0.0718994,0.0003014,0.1435013,0.0096016,0.2126999,0.0277004C42.5195999,4.1280332,43.4844017,4.4768319,45.2316017,8.2943335z"/>
<path d="M34.3581009,56.336731c-0.8939018,0.7041016-1.6921997,1.0074005-2.3708,0.9006042
	c-0.2964001-0.0466995-0.4821014-0.1541061-0.7167015-0.2903061c-0.3639984-0.2294998-0.7750988-0.3881989-1.2080994-0.466301
	c-0.4330006-0.0780945-0.8787003-0.0739975-1.3097992,0.012207c-0.2838001,0.0459976-0.5044003,0.0821991-0.8376999,0.0236969
	c-0.6247005-0.1106033-1.2206001-0.5007019-1.7715015-1.1592026l-0.0063-0.0065002
	c-0.0077991-0.0084991-0.0156002-0.0156937-0.0240993-0.0235977c-0.0086994-0.0084991-0.0179005-0.0166016-0.0277004-0.0242004
	l-0.0063-0.0051956c-0.0056992-0.0046005-0.0128002-0.0072021-0.0184994-0.0111008
	c-0.0109005-0.0070038-0.0221996-0.0133057-0.0340004-0.0190048l-0.0296993-0.0124969
	c-0.0109005-0.0044022-0.0220013-0.0081024-0.0334015-0.0111008c-0.0106983-0.0029984-0.0215988-0.0054016-0.0325985-0.0072021
	l-0.0347004-0.0052948l-0.0319004-0.0001068c-0.0121002-0.0005951-0.0242004-0.0005951-0.0361996,0
	c-0.0105,0.0009003-0.0209007,0.0024033-0.0312004,0.0045013c-0.0119991,0.0017014-0.0238991,0.0041046-0.0354996,0.0072021
	l-0.0312004,0.0103989l-0.0319996,0.0130005c-0.0109997,0.0054016-0.0216999,0.0114975-0.0319004,0.0182037
	c-0.0063992,0.0038986-0.0135002,0.0071945-0.0198994,0.011795c-0.0064011,0.0045013-0.0042,0.0038986-0.0071011,0.0057983
	c-0.0091991,0.007103-0.0179996,0.0147018-0.0261993,0.0228043c-0.0086002,0.0078964-0.0170994,0.0157013-0.0249004,0.0242004
	l-0.0063992,0.0065002c-0.5513,0.6568985-1.1483002,1.043396-1.7747002,1.1541977
	c-0.3334007,0.0577011-0.5561008,0.0207977-0.8376007-0.0259018c-0.4309998-0.0872955-0.8768005-0.0926971-1.3100986-0.0158005
	c-0.4332008,0.0769043-0.8449001,0.2344055-1.2097015,0.4629059c-0.2342987,0.1355972-0.4202995,0.2423935-0.7167988,0.2883987
	c-0.6795998,0.1047974-1.4764004-0.197998-2.3683014-0.9072037c-0.0352993-0.0279999-0.0762997-0.0493011-0.1204987-0.0627975
	c-0.0443001-0.0133972-0.0910015-0.0186996-0.1375008-0.0155029c-0.0937996,0.0064011-0.1809998,0.0469055-0.2423992,0.1125031
	c-0.0615005,0.0656967-0.092001,0.1511002-0.085001,0.2376022c0.007,0.0863953,0.0508995,0.1666946,0.1223011,0.2232971
	c0.9095993,0.7197037,1.7715988,1.0839996,2.5616989,1.0850983c0.1296997,0.0003052,0.2593002-0.0093994,0.3873005-0.0289001
	c0.4354992-0.0646973,0.7094994-0.2256012,0.9757004-0.3787994c0.2661991-0.1530991,0.5237999-0.3015976,0.9934998-0.3799973
	c0.3383999-0.0569992,0.6859989-0.0496979,1.0212994,0.0215988c0.3105011,0.0513992,0.6324997,0.1054001,1.0943012,0.0251007
	c0.6896-0.1199036,1.3347988-0.4848022,1.9221001-1.0860977c0.5856991,0.6029968,1.2298985,0.9695969,1.918499,1.0914001
	c0.4622993,0.0815964,0.7800999,0.0284958,1.0951004-0.0220032c0.3353996-0.0703964,0.6830006-0.0767975,1.0212994-0.018898
	c0.4722996,0.0796967,0.7259998,0.2269974,0.9924011,0.3827972c0.2664986,0.1557999,0.539299,0.3130035,0.974699,0.3815002
	c0.1280003,0.0197983,0.2575016,0.0298004,0.3872013,0.0298996c0.7922974,0.0010986,1.6530991-0.360199,2.5639992-1.0779953
	c0.0703011-0.0566025,0.1134987-0.1365051,0.1203003-0.2222061c0.0066986-0.0858002-0.0236015-0.1706009-0.084301-0.2359009
	c-0.0606995-0.0653992-0.1469002-0.1060944-0.2399979-0.1131973c-0.0930023-0.0072021-0.1854019,0.0196991-0.257,0.0748978
	L34.3581009,56.336731z"/>
<path d="M48.4645004,10.3278322c-1.4044991-3.3860002-3.1702003-6.6355004-5.2710991-9.7006989
	c-0.3390999-0.5014-0.7793999-0.5928001-1.0893021-0.581501c-1.0291977,0.0377998-2.4217987,1.3115005-4.2565994,3.8941002
	c-1.3125,1.8465996-2.524601,3.9153996-3.1004982,4.9303002c-0.1503029-0.040699-0.297802-0.0800991-0.4403-0.1168995
	c-0.7352028-0.1903992-1.4924011-0.3605995-2.2497025-0.5060005c-0.9018993-0.1723995-1.8167-0.3114991-2.7193985-0.4119992
	c-2.2628002-0.2635002-4.5523014-0.2666016-6.8158016-0.0094013c-0.9029999,0.0981007-1.8181,0.2346005-2.720499,0.4045014
	c-0.7576008,0.1432991-1.5153008,0.3113995-2.2511005,0.4997997c-0.1418991,0.0363998-0.2901993,0.0753994-0.4405994,0.1156998
	c-0.5709-1.0112996-1.7788-3.0867009-3.0868998-4.9389005c-1.8277006-2.5876999-3.2167006-3.8652-4.24578-3.9057999
	C9.4677-0.011167,9.0264301,0.0790315,8.6853104,0.5795332C6.5760398,3.6396317,4.80162,6.8848329,3.3880999,10.2676325
	C0.852665,16.3626328-0.245754,22.3929329,0.124984,28.1901321c-0.000198,0.1436996,0.006695,0.2881012,0.012167,0.4343987
	c0.083686,2.1183014,0.310779,4.2298012,0.679954,6.3221016c-0.000333,0.0022011-0.000336,0.0043983-0.000009,0.0065994
	c0.331364,1.8634987,0.778754,3.707901,1.3399341,5.5242004c0.52529,1.7047005,1.1540098,3.3809013,1.8831997,5.0207977
	c0.36272,0.8175011,0.75947,1.6404037,1.1782303,2.4457016c0.4640298,0.8908997,0.9628301,1.7733002,1.4857898,2.6212006
	c0.3460402,0.5661011,0.7076802,1.1302032,1.0821099,1.6761017c5.1669407,7.6007004,12.2597408,12.517601,18.0683403,12.5255966
	c5.8087006,0.0080032,12.914999-4.8892975,18.1028996-12.4757004c0.3724022-0.5441971,0.7383995-1.1092987,1.0867004-1.6730957
	c0.521801-0.8484039,1.0229988-1.7275009,1.4888-2.6171036c0.4216995-0.8034973,0.8199997-1.6251984,1.1856995-2.4417992
	c0.7332001-1.6381989,1.3666-3.3129005,1.8969994-5.016201c0.5667-1.8167992,1.0191994-3.6623001,1.3552017-5.5270996
	c0.3750992-2.0914993,0.6077995-4.2025986,0.696701-6.3209c0.0057983-0.1455994,0.0109978-0.2900009,0.0139999-0.4329987
	C52.0648994,22.463131,50.9831009,16.4304314,48.4645004,10.3278322z M50.9696999,28.2276306
	c0.0003014,0.0051994,0.0003014,0.0105019,0,0.0157013c-0.0029984,0.1411018-0.0074997,0.2831993-0.013401,0.4264984
	c-0.0877991,2.0907021-0.3176003,4.1743011-0.6879997,6.2386017c-0.3312988,1.8400002-0.7770996,3.6609993-1.3353004,5.4538994
	c-0.5233994,1.6798019-1.1481972,3.3314018-1.8713989,4.9469986c-0.3606987,0.8055-0.7532997,1.6149025-1.1685982,2.4066048
	c-0.459301,0.8771973-0.9528008,1.7444992-1.4667015,2.5792007c-0.3432999,0.5572968-0.7029991,1.1093979-1.0704002,1.6470947
	c-2.5307007,3.7005005-5.5513992,6.8040009-8.7360001,8.973999c-3.0732002,2.0950012-6.103899,3.2005005-8.7684994,3.1968002
	s-5.6923008-1.1181946-8.7597008-3.2210007c-3.1778994-2.1786957-6.1892996-5.290596-8.7112198-8.9986954
	c-0.3666496-0.5373993-0.7247596-1.0923996-1.0658398-1.6500015c-0.5116301-0.8348007-1.0026503-1.7042007-1.4596-2.5827026
	c-0.4138203-0.7934952-0.8042002-1.604599-1.1619601-2.4103966c-0.7191-1.6178017-1.33956-3.2713013-1.85847-4.9528008
	c-0.5529299-1.7935982-0.99348-3.6148987-1.3194699-5.4550018C1.51466,34.840332,1.51467,34.838131,1.51515,34.8359337
	c-0.36443-2.064003-0.5882519-4.1469002-0.6701429-6.2366028c-0.005476-0.1436996-0.00953-0.2866974-0.012889-0.4225998
	c0.00035-0.0060997,0.000358-0.0121994,0.000025-0.0182991C0.265619,19.3016319,3.1886201,9.885932,9.2855501,0.9285322
	c0.1712799-0.2512989,0.3358603-0.2784996,0.46068-0.2730999c1.2382698,0.0487995,3.9328699,3.4750004,6.8640699,8.7257996
	c0.0011005,0.0027008,0.0025005,0.0053997,0.0042,0.0079002c0.0056992,0.0111008,0.0112991,0.0214996,0.0177002,0.0319996
	c0.0438995,0.0764999,0.1189003,0.1338005,0.2087002,0.1594009c0.0896988,0.0256004,0.1866989,0.0172997,0.2698994-0.0228996
	c0.0282001-0.0132999,0.0542011-0.030201,0.077301-0.0502014c0.1894989-0.052,0.3738995-0.1006985,0.5513-0.1461983
	c0.7201996-0.1845016,1.4614983-0.3494015,2.2035999-0.4888c0.8831997-0.1666012,1.7784996-0.2999001,2.6616001-0.3966999
	c2.2074986-0.2504005,4.4401989-0.2473011,6.6469994,0.0091991c0.8829002,0.0991993,1.7777996,0.2350006,2.6604996,0.4039993
	c0.7417011,0.1415005,1.4825993,0.3084011,2.2021999,0.4948997c0.1772995,0.0460014,0.3623009,0.0952015,0.5508995,0.1477013
	c0.0240021,0.0202999,0.050602,0.0376987,0.0793991,0.0516987c0.0830002,0.0398006,0.1795998,0.0477009,0.2689018,0.0222015
	c0.0892982-0.0256004,0.1640015-0.0826015,0.207901-0.1587009c0.0070992-0.0116997,0.0135002-0.0240993,0.0184975-0.0333004
	c2.9470024-5.2458997,5.6518021-8.6659985,6.8916016-8.7112999c0.1263008-0.0051003,0.2893982,0.0226002,0.459198,0.2743015
	c7.6733017,11.3361988,8.7918015,21.0761986,8.3790016,27.2499008V28.2276306z"/>
<path class="st13" d="M26.9869003,51.2544327c-0.0001011,0.1176987-0.4969997,0.4093018-1.1175995,0.4085007
	c-0.6206017-0.0009003-1.1167011-0.2938995-1.1165009-0.4115982c0.0002003-0.1177063,0.4965992-0.0817032,1.1172009-0.0809021
	C26.4906006,51.1713333,26.9871006,51.136734,26.9869003,51.2544327z"/>
<path class="st5" d="M48.5854988,41.4226303c-0.448597,1.3233032-0.9595985,2.6256027-1.524498,3.8848
	c-0.3600006,0.8055-0.7532997,1.6155052-1.168602,2.4071999c-0.4586983,0.876503-0.9527969,1.7444992-1.4668007,2.5784988
	c-0.3432999,0.5573044-0.7028999,1.1094055-1.0703964,1.6471024c-2.5307007,3.7005005-5.5507011,6.8040009-8.7360001,8.9745026
	c-3.0733013,2.0943985-6.104002,3.1998978-8.7686024,3.1961975s-5.6922989-1.1182022-8.7596989-3.2202988
	c-3.1772003-2.1793976-6.1894007-5.2911987-8.7113008-8.998703C8.0129499,51.3545303,7.65484,50.79953,7.3137498,50.2419281
	c-0.5116296-0.8353958-1.0026498-1.7040939-1.45961-2.5825958c-0.4138098-0.7940979-0.8041997-1.604599-1.1619596-2.4109993
	c-0.5741301-1.2887993-1.0914602-2.6226006-1.5442102-3.9771996c0.0589399-0.0587006,0.1136301-0.1135025,0.1661901-0.1650009
	c0.1235299,0.4213982,2.6754801,8.5878983,11.16364,10.736702c2.9153996,0.7381973,5.5795994,0.5256958,7.6271,0.0758972
	c1.3048-0.2857971,2.5674992-0.7152023,3.7607002-1.2789001c1.157999,0.6057968,2.3927994,1.0775986,3.676199,1.4048004
	c2.210001,0.5706024,5.1955013,0.8895035,8.4557018-0.0346985c5.2624969-1.4950027,9.2534981-5.6625023,10.4620972-10.8402023
	C48.5084991,41.2520332,48.5452003,41.3363304,48.5854988,41.4226303z"/>
</svg>
